<?xml version="1.0" standalone="no"?>
<!DOCTYPE svg PUBLIC "-//W3C//DTD SVG 20010904//EN"
 "http://www.w3.org/TR/2001/REC-SVG-20010904/DTD/svg10.dtd">
<svg version="1.0" xmlns="http://www.w3.org/2000/svg"
 width="1024.000000pt" height="1024.000000pt" viewBox="0 0 1024.000000 1024.000000"
 preserveAspectRatio="xMidYMid meet">

<g transform="translate(0.000000,1024.000000) scale(0.100000,-0.100000)"
fill="#000000" stroke="none">
<path d="M4695 8024 c-16 -2 -82 -11 -145 -20 -527 -72 -1034 -317 -1408 -678
-287 -278 -498 -616 -601 -966 -32 -106 -85 -349 -79 -356 3 -2 58 25 124 61
65 36 125 65 132 65 8 0 53 -24 101 -54 135 -83 202 -114 308 -140 103 -26
246 -51 348 -61 108 -11 105 -9 106 -68 0 -28 4 -73 7 -100 7 -46 10 -49 82
-97 41 -27 76 -48 78 -46 2 2 -1 47 -7 100 -6 52 -11 116 -11 142 l0 47 68 -7
c287 -28 577 -34 737 -16 97 11 167 29 368 91 l127 40 0 523 0 523 178 6 c97
4 238 16 312 27 152 22 532 121 538 139 5 14 -83 171 -166 297 -72 110 -193
255 -275 330 -34 31 -53 53 -42 49 11 -4 70 -25 130 -47 243 -87 511 -234 712
-389 56 -44 105 -79 108 -79 13 0 125 54 125 61 0 14 -185 157 -295 228 -309
201 -637 319 -1055 381 -74 11 -547 22 -605 14z m584 -119 c103 -17 318 -218
463 -433 54 -79 179 -295 174 -299 -15 -15 -406 -47 -713 -59 l-173 -6 0 404
c0 223 2 407 4 409 6 5 190 -7 245 -16z m-379 -390 l0 -405 -54 0 c-166 0
-730 39 -819 56 l-28 6 47 86 c54 102 138 232 202 316 107 139 274 292 344
315 50 16 143 28 231 30 l77 1 0 -405z m-586 293 c-25 -23 -55 -49 -65 -56
-28 -20 -177 -208 -241 -306 -32 -49 -79 -129 -104 -177 -42 -82 -48 -88 -72
-84 -15 3 -123 21 -241 41 -117 19 -222 39 -233 43 -17 6 -9 17 63 80 206 179
420 314 647 408 89 36 284 102 290 97 2 -1 -18 -22 -44 -46z m-829 -682 c116
-19 236 -37 268 -41 31 -4 57 -9 57 -11 0 -2 -10 -27 -21 -56 -61 -153 -130
-387 -159 -543 -20 -108 -50 -359 -50 -417 0 -31 -3 -59 -8 -62 -12 -7 -249
31 -422 69 -154 33 -397 98 -407 108 -2 3 5 43 16 88 68 285 228 610 413 837
48 58 64 71 81 67 12 -3 117 -20 232 -39z m740 -91 c94 -8 284 -18 423 -21
l252 -7 0 -527 0 -527 -47 -7 c-205 -28 -848 -11 -1091 30 l-33 5 6 67 c25
281 53 456 100 637 36 140 100 332 117 353 13 15 62 15 273 -3z"/>
<path d="M7479 8028 c0 -3 -5 -155 -8 -245 l-1 -42 -57 -3 -58 -3 -3 -357 -2
-357 62 -3 63 -3 3 -107 3 -108 29 0 30 0 0 110 0 110 55 0 55 0 -2 358 -3
357 -52 3 -53 3 0 145 0 144 -30 0 c-16 0 -30 -1 -31 -2z"/>
<path d="M7078 7902 c-15 -3 -18 -15 -18 -75 0 -40 -3 -123 -7 -184 l-6 -113
-59 0 -58 0 0 -415 0 -414 34 -7 c19 -3 40 -3 45 1 6 3 20 3 31 0 18 -6 20
-15 20 -125 0 -65 3 -121 8 -123 4 -3 19 -3 35 0 l27 5 0 124 0 124 55 0 55 0
0 415 0 415 -60 0 -60 0 0 179 c0 185 -4 202 -42 193z"/>
<path d="M6640 7337 c-551 -269 -1008 -496 -1014 -505 -4 -7 4 -14 21 -18 59
-13 328 -96 336 -103 10 -10 -319 -349 -481 -497 -190 -174 -478 -398 -707
-551 -533 -355 -984 -584 -1535 -779 -212 -75 -628 -200 -775 -233 -77 -18
-167 -38 -200 -46 -33 -7 -118 -21 -190 -29 -237 -29 -217 -24 -194 -47 18
-18 19 -34 19 -234 l0 -215 198 2 197 3 2 220 c2 201 4 220 21 226 32 12 204
39 213 33 5 -3 9 -68 9 -145 l0 -139 198 2 197 3 2 160 1 160 104 22 c978 212
1677 491 2282 912 318 222 511 386 820 696 l228 230 27 -31 c147 -170 214
-244 220 -244 4 0 13 60 19 133 12 122 43 417 93 880 11 104 19 190 17 192 -2
1 -59 -25 -128 -58z m-3730 -2833 c0 -92 -5 -124 -20 -124 -9 0 -25 194 -16
208 3 5 12 9 21 9 12 0 15 -16 15 -93z m-660 -151 c0 -140 -8 -198 -24 -182
-4 3 -9 285 -6 332 0 4 7 7 15 7 13 0 15 -24 15 -157z"/>
<path d="M7218 6397 c-53 -40 -100 -75 -103 -79 -4 -4 7 -62 23 -130 46 -185
67 -307 56 -317 -5 -4 -85 -29 -179 -56 -325 -91 -616 -187 -603 -200 4 -4
263 28 478 59 284 42 312 46 320 51 13 8 19 -19 26 -115 l7 -90 91 -1 c50 0
116 -4 146 -8 30 -5 56 -8 57 -6 5 3 -36 319 -53 405 -43 234 -140 562 -163
559 -3 0 -50 -33 -103 -72z"/>
<path d="M6230 6128 c-137 -144 -328 -315 -517 -463 l-153 -119 0 -660 0 -661
50 93 c140 264 314 416 565 495 44 13 99 28 123 32 l42 7 0 694 c0 382 -1 694
-2 693 -2 -1 -50 -51 -108 -111z"/>
<path d="M2585 5939 c-107 -63 -384 -217 -610 -339 -172 -93 -443 -246 -454
-256 -2 -2 529 -4 1180 -4 l1184 0 -145 83 c-80 46 -293 171 -475 277 -500
294 -529 310 -545 310 -8 -1 -69 -33 -135 -71z m270 -129 c171 -99 181 -110
42 -46 -29 13 -76 34 -106 47 l-54 23 -66 -24 c-36 -12 -88 -34 -114 -47 -88
-44 -69 -19 27 35 52 30 103 60 113 68 10 7 23 14 28 14 6 0 64 -31 130 -70z"/>
<path d="M7104 5440 c-286 -20 -539 -90 -587 -164 -23 -34 -21 -88 2 -118 89
-112 522 -186 939 -158 291 19 502 77 572 157 36 40 38 69 7 114 -80 120 -510
197 -933 169z m443 -125 c109 -14 279 -53 270 -61 -2 -2 -66 6 -143 18 -190
30 -616 32 -767 4 -117 -21 -140 -15 -35 9 197 45 465 57 675 30z"/>
<path d="M5250 5269 c-158 -99 -357 -202 -530 -274 l-145 -61 -1 -673 c-1
-370 -6 -676 -10 -681 -5 -4 -48 -22 -95 -38 l-86 -30 -6 156 c-4 86 -7 372
-7 635 l0 478 -22 -7 c-77 -24 -469 -138 -605 -175 l-163 -44 0 -616 0 -617
-87 -21 c-47 -12 -89 -18 -94 -14 -4 4 -9 206 -11 448 l-4 440 -400 0 -399 0
3 -481 4 -481 -129 -11 c-70 -7 -158 -12 -195 -12 -128 0 -68 -17 136 -39 664
-71 1360 -73 1956 -5 328 37 721 115 989 196 l103 32 29 -35 c16 -18 29 -37
29 -40 0 -12 -354 -99 -610 -148 -590 -114 -1384 -180 -1846 -152 -103 6 -189
9 -191 7 -17 -17 624 -98 1017 -128 221 -17 1047 -17 1290 0 330 23 880 87
880 102 0 3 -30 23 -67 44 -146 88 -313 283 -377 441 -61 150 -68 189 -73 378
-4 131 -8 175 -17 168 -14 -12 -135 -81 -138 -78 0 1 -4 318 -7 705 l-6 702
-115 -71z"/>
<path d="M1650 5242 c0 -4 20 -30 44 -57 l44 -50 903 -3 904 -3 133 52 c72 29
132 56 132 60 0 5 -486 8 -1080 8 -594 0 -1080 -3 -1080 -7z"/>
<path d="M8025 5084 c-102 -85 -312 -142 -610 -164 -82 -6 -188 -10 -234 -8
l-85 3 -2 -64 c-2 -34 -5 -65 -8 -68 -3 -3 -19 5 -35 17 -28 19 -31 27 -31 74
l0 53 -37 6 c-21 3 -53 9 -70 12 l-33 8 0 -80 0 -79 54 -23 c30 -12 94 -48
143 -80 l88 -58 135 9 c382 24 612 82 713 179 l47 45 0 122 c0 67 -1 122 -2
122 -2 -1 -16 -12 -33 -26z"/>
<path d="M6500 4971 l0 -99 56 -7 c30 -3 98 -17 150 -30 l95 -22 -3 75 -3 75
-45 13 c-63 19 -68 18 -73 -18 l-4 -33 -1 37 c-2 33 -6 38 -39 48 -21 7 -57
23 -80 36 -23 13 -44 24 -47 24 -3 0 -6 -44 -6 -99z"/>
<path d="M1840 4995 l0 -65 35 0 35 0 0 -168 c0 -93 2 -171 5 -174 3 -3 65 5
138 18 73 13 135 24 140 24 4 0 7 68 7 150 l0 150 30 0 30 0 0 -129 0 -128 25
5 c14 2 26 7 26 11 1 3 3 88 4 189 l3 182 -239 0 -239 0 0 -65z"/>
<path d="M2479 5010 c-1 -27 -2 -56 -3 -62 -1 -8 14 -14 37 -16 l37 -3 0 -98
0 -98 73 17 c39 10 111 28 160 40 l87 22 0 59 0 58 43 3 42 3 3 63 3 62 -241
0 -240 0 -1 -50z"/>
<path d="M3120 4995 c0 -60 2 -65 22 -65 25 0 358 109 373 122 5 4 -82 8 -193
8 l-202 0 0 -65z"/>
<path d="M8027 4762 c-41 -43 -168 -98 -300 -132 -113 -29 -338 -60 -429 -60
-27 0 -48 -2 -48 -5 0 -3 23 -33 51 -67 28 -35 67 -92 86 -128 20 -36 38 -67
39 -69 5 -6 196 20 286 40 100 22 221 67 277 104 64 43 73 71 69 218 l-3 128
-28 -29z"/>
<path d="M6367 4750 c-279 -47 -522 -223 -641 -464 -71 -143 -89 -223 -90
-401 -1 -179 13 -242 84 -390 84 -175 216 -305 395 -391 148 -72 223 -88 410
-87 189 0 267 17 410 88 223 111 392 319 456 560 30 115 30 318 0 430 -90 335
-355 575 -715 649 -79 17 -228 19 -309 6z m257 -188 c3 -5 6 -34 7 -65 1 -31
5 -60 8 -65 3 -4 35 -16 69 -25 66 -18 156 -59 167 -76 5 -9 -31 -148 -41
-160 -2 -2 -24 11 -50 28 -148 98 -326 106 -368 17 -47 -100 2 -143 276 -240
181 -64 258 -161 245 -307 -12 -133 -122 -240 -285 -279 l-53 -12 6 -63 c7
-59 6 -62 -16 -68 -31 -9 -88 -9 -128 -1 -31 6 -31 7 -31 70 l0 63 -57 11
c-77 16 -191 64 -230 98 l-31 27 25 85 c14 47 27 86 28 88 2 2 16 -9 31 -24
106 -98 290 -151 388 -110 54 22 86 64 86 112 0 75 -46 113 -210 170 -245 85
-314 149 -315 289 0 59 5 78 30 123 47 86 117 133 229 156 l61 13 -3 66 c-2
36 -1 71 3 76 7 13 151 15 159 3z m-484 -26 c0 -2 -23 -21 -51 -42 -102 -75
-202 -218 -252 -362 -30 -83 -31 -94 -31 -247 0 -148 2 -166 26 -240 38 -110
104 -218 179 -292 35 -35 58 -63 51 -63 -27 0 -168 156 -204 225 -68 132 -83
199 -83 380 1 147 3 167 28 240 14 44 43 109 64 145 45 76 171 209 228 238 45
23 45 24 45 18z m863 -84 c131 -111 228 -271 256 -426 34 -183 -6 -399 -101
-547 -41 -63 -125 -159 -140 -159 -6 0 7 19 29 43 49 53 113 161 143 242 68
184 64 397 -10 570 -36 85 -127 211 -198 274 -85 77 -69 79 21 3z"/>
<path d="M3256 4605 c-59 -12 -111 -27 -115 -33 -3 -5 -6 -72 -6 -149 l0 -138
138 -3 137 -3 0 176 0 175 -22 -1 c-13 -1 -72 -12 -132 -24z"/>
<path d="M8031 4416 c-72 -76 -380 -176 -545 -176 -32 0 -37 -3 -31 -17 14
-35 55 -206 55 -229 0 -30 24 -31 155 -9 168 29 309 88 365 152 l30 34 0 134
c0 74 -1 135 -3 135 -2 0 -14 -11 -26 -24z"/>
<path d="M8031 4067 c-60 -65 -285 -146 -453 -163 l-68 -7 0 -61 c0 -54 -18
-162 -36 -219 -6 -18 -3 -19 57 -12 185 20 345 67 446 131 77 49 84 69 81 225
l-3 131 -24 -25z"/>
<path d="M1845 4001 c-3 -11 -19 -21 -37 -25 -36 -7 -58 -23 -58 -42 0 -12 58
-14 340 -14 l340 0 0 50 0 50 -289 0 c-275 0 -290 -1 -296 -19z"/>
<path d="M1530 3700 l0 -140 480 0 480 0 0 140 0 140 -480 0 -480 0 0 -140z"/>
<path d="M8025 3703 c-40 -32 -148 -87 -222 -112 -67 -22 -268 -61 -319 -61
-30 0 -35 -5 -58 -55 -31 -68 -83 -148 -137 -209 l-41 -46 44 5 c24 3 90 10
148 15 286 30 566 123 608 202 9 16 12 65 10 155 l-3 131 -30 -25z"/>
</g>
</svg>
